<?xml version="1.0" encoding="iso-8859-1"?>
<!-- Generator: Adobe Illustrator 19.0.0, SVG Export Plug-In . SVG Version: 6.00 Build 0)  -->
<svg version="1.1" id="Capa_1" xmlns="http://www.w3.org/2000/svg" xmlns:xlink="http://www.w3.org/1999/xlink" x="0px" y="0px"
	 viewBox="0 0 480 480" style="enable-background:new 0 0 480 480;" xml:space="preserve">
<g>
	<circle style="fill:#FFC931;" cx="240" cy="44" r="40"/>
	<path style="fill:#FFC931;" d="M240,188l24,96h40l-24-112v-56h16c7.096,0,13.808-1.584,19.872-4.344
		c-0.888-0.592-1.752-1.2-2.688-1.728c0.936,0.528,1.8,1.144,2.688,1.728C332.456,104.096,344,87.416,344,68V4h-32v64
		c0,8.84-7.16,16-16,16h-56h-56c-8.84,0-16-7.16-16-16V4h-32v64c0,26.512,21.488,48,48,48h16v56l-24,112h40L240,188z"/>
</g>
<path style="fill:#5086F2;" d="M320,380l-40-40l-40,40l-40-40l-40,40l-38.856-38.856L17.144,468h445.712l-104-126.856L320,380z
	 M200,436h16H200z M232,436h16H232z M264,436h16H264z"/>
<polygon style="fill:#4BDDDD;" points="200,340 240,380 280,340 320,380 358.856,341.144 312,284 304,284 264,284 216,284 176,284 
	168,284 121.144,341.144 160,380 "/>
<g>
	<circle style="fill:#FFC931;" cx="56" cy="52" r="48"/>
	<circle style="fill:#FFC931;" cx="424" cy="292" r="48"/>
</g>
<path style="fill:#C9F4F3;" d="M9.128,252H143.28c0.44-2.608,0.72-5.272,0.72-8c0-26.512-21.488-48-48-48
	c-16.368,0-30.808,8.208-39.472,20.72C51.688,213.784,46.072,212,40,212c-17.672,0-32,14.328-32,32
	C8,246.776,8.464,249.432,9.128,252z"/>
<path style="fill:#E68F39;" d="M288,244c24.448,4.528,52.048,5.672,70.904-12.504c12.352-11.912,25.568-39.832,42.032-45.432
	c-13.064,4.44-27.776-1.64-37.696-11.232c-9.928-9.584-16.216-22.208-23.088-34.176c-6.872-11.968-14.96-23.936-26.96-30.736
	L304,108h-32v64L288,244z"/>
<polygon style="fill:#42C2C2;" points="304,284 264,284 240,284 240,380 280,340 320,380 358.856,341.144 312,284 "/>
<polygon style="fill:#3A66D6;" points="240,468 462.856,468 358.856,341.144 320,380 280,340 240,380 "/>
<g>
	<path style="fill:#E6B52C;" d="M280,44c0-22.088-17.912-40-40-40v80C262.088,84,280,66.088,280,44z"/>
	<path style="fill:#E6B52C;" d="M264,284h40l-24-112v-56h16c7.096,0,13.808-1.584,19.872-4.344C332.456,104.096,344,87.416,344,68V4
		h-32v64c0,8.84-7.16,16-16,16h-56v104L264,284z"/>
</g>
<g>
	<rect y="460" style="fill:#2C2F47;" width="480" height="16"/>
	<rect x="232" y="428" style="fill:#2C2F47;" width="16" height="16"/>
	<rect x="264" y="428" style="fill:#2C2F47;" width="16" height="16"/>
	<rect x="200" y="428" style="fill:#2C2F47;" width="16" height="16"/>
</g>
<g>
</g>
<g>
</g>
<g>
</g>
<g>
</g>
<g>
</g>
<g>
</g>
<g>
</g>
<g>
</g>
<g>
</g>
<g>
</g>
<g>
</g>
<g>
</g>
<g>
</g>
<g>
</g>
<g>
</g>
</svg>
